<?xml version="1.0" encoding="utf-8"?>
<!-- Generator: Adobe Illustrator 16.0.0, SVG Export Plug-In . SVG Version: 6.00 Build 0)  -->
<!DOCTYPE svg PUBLIC "-//W3C//DTD SVG 1.1//EN" "http://www.w3.org/Graphics/SVG/1.1/DTD/svg11.dtd">
<svg version="1.1" id="Layer_1" xmlns="http://www.w3.org/2000/svg" xmlns:xlink="http://www.w3.org/1999/xlink" x="0px" y="0px"
	 width="618px" height="282px" viewBox="0 0 618 282" enable-background="new 0 0 618 282" xml:space="preserve">
<g>
	<defs>
		<rect id="SVGID_1_" width="618" height="282"/>
	</defs>
	<clipPath id="SVGID_2_">
		<use xlink:href="#SVGID_1_"  overflow="visible"/>
	</clipPath>
	<g clip-path="url(#SVGID_2_)">
		<path fill="#EC1C24" d="M98.781,80.397c12.608,2.978,21.461,6.586,26.557,10.821c7.316,6.023,10.975,13.834,10.975,23.43
			c0,10.126-4.018,18.5-12.053,25.118c-9.865,8.009-24.205,12.013-43.02,12.013H13.722v-3.674c6.14,0,10.305-0.578,12.494-1.737
			c2.188-1.157,3.724-2.663,4.606-4.517c0.882-1.852,1.323-6.419,1.323-13.701V40.784c0-7.28-0.441-11.864-1.323-13.75
			c-0.882-1.886-2.435-3.391-4.655-4.517c-2.222-1.125-6.37-1.688-12.445-1.688v-3.673h63.696c15.221,0,26.001,1.375,32.338,4.12
			c6.336,2.748,11.333,6.851,14.993,12.311c3.658,5.46,5.488,11.268,5.488,17.423c0,6.487-2.32,12.261-6.958,17.325
			C118.64,73.397,110.474,77.418,98.781,80.397z M63.111,85.46v43.187l-0.098,4.964c0,3.574,0.897,6.272,2.695,8.091
			c1.796,1.821,4.459,2.73,7.987,2.73c5.226,0,10.044-1.175,14.454-3.524c4.41-2.349,7.791-5.758,10.143-10.226
			c2.352-4.467,3.528-9.447,3.528-14.941c0-6.288-1.438-11.929-4.312-16.927c-2.875-4.997-6.828-8.489-11.857-10.474
			C80.618,86.354,73.106,85.395,63.111,85.46z M63.111,77.716c9.276,0,16.12-1.058,20.53-3.177c4.41-2.117,7.791-5.096,10.143-8.935
			c2.352-3.838,3.528-8.737,3.528-14.693c0-5.957-1.161-10.837-3.479-14.644c-2.32-3.805-5.635-6.701-9.946-8.687
			c-4.312-1.985-11.237-2.944-20.775-2.879V77.716z"/>
		<path fill="#EC1C24" d="M239.011,105.912l36.062-88.756h54.093v3.673h-4.312c-3.92,0-7.056,0.695-9.408,2.085
			c-1.634,0.928-2.939,2.482-3.92,4.666c-0.719,1.589-1.077,5.726-1.077,12.41v88.756c0,6.885,0.358,11.187,1.077,12.907
			c0.719,1.722,2.188,3.226,4.41,4.517c2.22,1.291,5.193,1.936,8.918,1.936h4.312v3.674h-69.38v-3.674h4.312
			c3.919,0,7.055-0.694,9.407-2.084c1.632-0.927,2.94-2.515,3.92-4.766c0.718-1.588,1.078-5.758,1.078-12.509V28.97l-50.957,122.81
			h-2.352L173.453,29.863v94.813c0,6.619,0.162,10.69,0.49,12.211c0.848,3.311,2.695,6.006,5.537,8.091s7.301,3.127,13.376,3.127
			v3.674h-45.47v-3.674h1.372c2.94,0.067,5.684-0.412,8.231-1.439c2.548-1.025,4.474-2.397,5.782-4.119
			c1.306-1.721,2.318-4.136,3.038-7.248c0.13-0.728,0.196-4.103,0.196-10.126V39.99c0-6.816-0.36-11.07-1.078-12.757
			c-0.719-1.688-2.189-3.177-4.41-4.468c-2.222-1.291-5.193-1.936-8.917-1.936h-4.214v-3.673h54.289L239.011,105.912z"/>
		<path fill="#EC1C24" d="M459.401,17.155v36.436h-3.528c-2.092-8.405-4.41-14.445-6.958-18.119s-6.043-6.602-10.485-8.787
			c-2.483-1.191-6.827-1.787-13.033-1.787h-9.897v103.847c0,6.885,0.375,11.187,1.127,12.907c0.751,1.722,2.221,3.226,4.41,4.517
			c2.188,1.291,5.177,1.936,8.967,1.936h4.409v3.674h-69.576v-3.674h4.41c3.854,0,6.957-0.694,9.31-2.084
			c1.698-0.927,3.038-2.515,4.018-4.766c0.718-1.588,1.078-5.758,1.078-12.509V24.899h-9.604c-8.951,0-15.451,1.92-19.501,5.758
			c-5.684,5.361-9.277,13.006-10.779,22.934h-3.724V17.155H459.401z"/>
		<path fill="#EC1C24" d="M471.356,17.155h68.596v3.673h-3.43c-5.161,0-8.706,0.546-10.633,1.638
			c-1.928,1.092-3.299,2.598-4.115,4.517c-0.817,1.92-1.225,6.719-1.225,14.396v65.922c0,12.047,0.896,20.022,2.694,23.927
			c1.796,3.906,4.753,7.148,8.868,9.729c4.116,2.582,9.31,3.873,15.581,3.873c7.187,0,13.311-1.639,18.374-4.915
			c5.063-3.276,8.853-7.794,11.368-13.552c2.514-5.758,3.772-15.786,3.772-30.082V41.38c0-6.022-0.622-10.325-1.862-12.907
			c-1.241-2.581-2.81-4.368-4.703-5.361c-2.94-1.522-7.09-2.284-12.445-2.284v-3.673h45.959v3.673h-2.744
			c-3.724,0-6.827,0.762-9.309,2.284c-2.484,1.523-4.28,3.807-5.39,6.85c-0.851,2.119-1.274,5.924-1.274,11.417v51.129
			c0,15.82-1.029,27.237-3.087,34.252c-2.058,7.016-7.072,13.469-15.042,19.359c-7.972,5.891-18.849,8.836-32.632,8.836
			c-11.499,0-20.383-1.556-26.655-4.666c-8.559-4.235-14.601-9.663-18.129-16.282c-3.527-6.618-5.291-15.521-5.291-26.707V41.38
			c0-7.744-0.426-12.559-1.274-14.445c-0.85-1.887-2.319-3.391-4.409-4.518c-2.092-1.125-5.946-1.653-11.563-1.588V17.155z"/>
	</g>
	<g clip-path="url(#SVGID_2_)">
		<path fill="#231F20" d="M45.002,249.016c2.489,0.532,4.351,1.384,5.587,2.556c1.712,1.633,2.568,3.63,2.568,5.99
			c0,1.793-0.565,3.511-1.695,5.152s-2.679,2.84-4.647,3.594c-1.968,0.755-4.974,1.132-9.016,1.132H20.854v-0.985h1.35
			c1.5,0,2.577-0.479,3.23-1.438c0.406-0.621,0.609-1.943,0.609-3.967v-23.323c0-2.236-0.256-3.647-0.768-4.233
			c-0.688-0.781-1.712-1.172-3.072-1.172h-1.35v-0.984H36.37c2.895,0,5.216,0.213,6.964,0.639c2.648,0.639,4.669,1.771,6.064,3.395
			c1.394,1.624,2.092,3.492,2.092,5.604c0,1.811-0.547,3.431-1.642,4.859S47.138,248.323,45.002,249.016z M31.127,247.577
			c0.653,0.125,1.398,0.218,2.237,0.28c0.838,0.063,1.761,0.093,2.767,0.093c2.577,0,4.515-0.279,5.812-0.839
			c1.297-0.559,2.291-1.415,2.979-2.569c0.688-1.153,1.033-2.413,1.033-3.78c0-2.112-0.856-3.914-2.568-5.405
			c-1.713-1.49-4.21-2.236-7.494-2.236c-1.766,0-3.354,0.196-4.766,0.586V247.577z M31.127,264.83
			c2.047,0.479,4.068,0.719,6.063,0.719c3.195,0,5.631-0.723,7.308-2.17c1.677-1.446,2.516-3.234,2.516-5.364
			c0-1.402-0.38-2.751-1.139-4.047c-0.759-1.296-1.995-2.316-3.707-3.063c-1.712-0.745-3.831-1.118-6.355-1.118
			c-1.095,0-2.03,0.019-2.807,0.054c-0.777,0.035-1.403,0.098-1.88,0.187V264.83z"/>
		<path fill="#231F20" d="M79.081,243.052v14.776c0,2.822,0.066,4.549,0.199,5.179s0.344,1.069,0.636,1.317
			c0.291,0.249,0.631,0.373,1.019,0.373c0.547,0,1.166-0.15,1.854-0.453l0.371,0.933l-7.255,3.008h-1.191v-5.165
			c-2.083,2.272-3.672,3.701-4.767,4.287c-1.095,0.585-2.25,0.878-3.468,0.878c-1.36,0-2.538-0.395-3.535-1.185
			c-0.998-0.789-1.69-1.806-2.079-3.049c-0.389-1.242-0.583-2.999-0.583-5.271v-10.889c0-1.154-0.124-1.953-0.371-2.396
			c-0.248-0.443-0.614-0.785-1.099-1.025c-0.486-0.239-1.364-0.351-2.635-0.333v-0.984h8.5v16.32c0,2.272,0.393,3.764,1.178,4.473
			c0.785,0.711,1.734,1.065,2.847,1.065c0.759,0,1.619-0.239,2.582-0.719c0.962-0.479,2.105-1.394,3.429-2.742v-13.818
			c0-1.385-0.251-2.32-0.755-2.809c-0.503-0.488-1.549-0.75-3.138-0.786v-0.984H79.081z"/>
		<path fill="#231F20" d="M96.795,242.332c3.671,0,6.62,1.402,8.844,4.207c1.889,2.396,2.833,5.147,2.833,8.254
			c0,2.183-0.521,4.393-1.562,6.629c-1.042,2.237-2.476,3.924-4.303,5.06c-1.827,1.135-3.862,1.703-6.103,1.703
			c-3.654,0-6.558-1.464-8.712-4.393c-1.818-2.467-2.727-5.236-2.727-8.307c0-2.236,0.551-4.46,1.655-6.67
			c1.103-2.21,2.555-3.843,4.356-4.898C92.876,242.86,94.783,242.332,96.795,242.332z M95.974,244.063
			c-0.936,0-1.876,0.279-2.82,0.838c-0.945,0.56-1.708,1.54-2.291,2.942s-0.874,3.204-0.874,5.405c0,3.55,0.702,6.611,2.105,9.185
			c1.403,2.574,3.252,3.861,5.547,3.861c1.712,0,3.125-0.71,4.236-2.13c1.112-1.42,1.668-3.861,1.668-7.322
			c0-4.33-0.927-7.738-2.78-10.224C99.513,244.915,97.916,244.063,95.974,244.063z"/>
		<path fill="#231F20" d="M119.117,247.498c2.842-3.443,5.551-5.166,8.129-5.166c1.324,0,2.462,0.333,3.416,0.999
			c0.953,0.665,1.712,1.762,2.277,3.288c0.388,1.064,0.583,2.698,0.583,4.898v10.41c0,1.545,0.124,2.592,0.371,3.143
			c0.194,0.443,0.507,0.79,0.94,1.038c0.432,0.249,1.231,0.373,2.396,0.373v0.958h-11.995v-0.958h0.503
			c1.129,0,1.92-0.174,2.37-0.52c0.45-0.347,0.764-0.856,0.94-1.531c0.07-0.266,0.106-1.101,0.106-2.503v-9.983
			c0-2.219-0.288-3.83-0.861-4.833c-0.574-1.002-1.541-1.504-2.899-1.504c-2.101,0-4.193,1.154-6.275,3.461v12.859
			c0,1.651,0.097,2.672,0.291,3.063c0.247,0.515,0.587,0.892,1.02,1.131c0.433,0.24,1.311,0.36,2.635,0.36v0.958h-11.995v-0.958
			h0.53c1.235,0,2.069-0.315,2.502-0.945s0.649-1.833,0.649-3.608v-9.052c0-2.929-0.066-4.713-0.199-5.352s-0.335-1.074-0.609-1.305
			c-0.274-0.23-0.64-0.346-1.099-0.346c-0.495,0-1.086,0.133-1.774,0.398l-0.397-0.958l7.308-2.982h1.139V247.498z"/>
		<path fill="#231F20" d="M173.213,267.439l-13.875-30.379v24.122c0,2.219,0.238,3.604,0.715,4.153
			c0.653,0.746,1.686,1.118,3.098,1.118h1.271v0.985h-12.498v-0.985h1.271c1.518,0,2.595-0.461,3.23-1.384
			c0.388-0.568,0.583-1.864,0.583-3.888v-23.589c0-1.598-0.177-2.752-0.53-3.462c-0.248-0.515-0.702-0.945-1.364-1.291
			c-0.662-0.346-1.726-0.52-3.19-0.52v-0.984h10.168l13.027,28.248l12.816-28.248h10.168v0.984h-1.245
			c-1.536,0-2.621,0.462-3.257,1.385c-0.389,0.568-0.583,1.864-0.583,3.888v23.589c0,2.219,0.247,3.604,0.741,4.153
			c0.653,0.746,1.686,1.118,3.098,1.118h1.245v0.985h-15.252v-0.985h1.271c1.536,0,2.612-0.461,3.23-1.384
			c0.388-0.568,0.583-1.864,0.583-3.888v-24.122l-13.849,30.379H173.213z"/>
		<path fill="#231F20" d="M214.679,263.925c-2.489,1.936-4.051,3.054-4.687,3.354c-0.953,0.444-1.969,0.666-3.045,0.666
			c-1.677,0-3.059-0.576-4.144-1.73c-1.086-1.153-1.628-2.671-1.628-4.553c0-1.189,0.265-2.219,0.794-3.089
			c0.724-1.207,1.981-2.343,3.773-3.407c1.792-1.065,4.771-2.361,8.937-3.888v-0.958c0-2.432-0.384-4.101-1.152-5.006
			c-0.768-0.905-1.884-1.357-3.349-1.357c-1.112,0-1.995,0.302-2.648,0.905c-0.671,0.604-1.006,1.295-1.006,2.076l0.053,1.544
			c0,0.817-0.208,1.447-0.622,1.891c-0.415,0.444-0.958,0.666-1.628,0.666c-0.653,0-1.188-0.23-1.602-0.692
			c-0.415-0.462-0.622-1.092-0.622-1.891c0-1.526,0.776-2.929,2.33-4.207c1.553-1.277,3.733-1.917,6.54-1.917
			c2.154,0,3.919,0.364,5.296,1.092c1.042,0.551,1.81,1.411,2.304,2.583c0.318,0.764,0.477,2.325,0.477,4.686v8.28
			c0,2.325,0.044,3.75,0.132,4.273s0.234,0.874,0.437,1.052c0.203,0.178,0.437,0.267,0.702,0.267c0.282,0,0.53-0.063,0.742-0.187
			c0.371-0.23,1.085-0.879,2.145-1.944v1.491c-1.977,2.663-3.866,3.994-5.667,3.994c-0.865,0-1.554-0.303-2.065-0.905
			C214.961,266.41,214.697,265.381,214.679,263.925z M214.679,262.194v-9.292c-2.666,1.065-4.387,1.819-5.163,2.264
			c-1.395,0.781-2.392,1.597-2.992,2.449c-0.601,0.852-0.9,1.783-0.9,2.795c0,1.278,0.379,2.339,1.139,3.182
			c0.759,0.844,1.633,1.265,2.622,1.265C210.725,264.856,212.49,263.97,214.679,262.194z"/>
		<path fill="#231F20" d="M267.27,231.337l0.397,8.466h-1.006c-0.194-1.49-0.459-2.556-0.794-3.194
			c-0.547-1.029-1.275-1.788-2.185-2.276s-2.105-0.732-3.588-0.732h-5.058v27.583c0,2.219,0.239,3.604,0.715,4.153
			c0.67,0.746,1.703,1.118,3.098,1.118h1.245v0.985h-15.225v-0.985h1.271c1.518,0,2.595-0.461,3.23-1.384
			c0.388-0.568,0.583-1.864,0.583-3.888V233.6h-4.316c-1.677,0-2.869,0.124-3.575,0.373c-0.918,0.337-1.704,0.984-2.356,1.943
			c-0.653,0.958-1.042,2.254-1.165,3.887h-1.006l0.424-8.466H267.27z"/>
		<path fill="#231F20" d="M277.835,229.579v17.839c1.959-2.165,3.513-3.555,4.661-4.167c1.147-0.612,2.294-0.919,3.442-0.919
			c1.377,0,2.56,0.383,3.548,1.146c0.988,0.764,1.721,1.961,2.198,3.594c0.335,1.137,0.503,3.213,0.503,6.23v8.626
			c0,1.545,0.124,2.601,0.371,3.169c0.176,0.426,0.477,0.764,0.9,1.012c0.424,0.249,1.2,0.373,2.33,0.373v0.958h-11.916v-0.958
			h0.556c1.129,0,1.915-0.174,2.357-0.52c0.441-0.347,0.75-0.856,0.927-1.531c0.053-0.283,0.079-1.118,0.079-2.503v-8.626
			c0-2.662-0.137-4.41-0.41-5.245c-0.274-0.834-0.711-1.46-1.311-1.877s-1.324-0.626-2.171-0.626c-0.865,0-1.766,0.231-2.701,0.692
			c-0.936,0.462-2.057,1.394-3.363,2.796v12.886c0,1.669,0.093,2.707,0.278,3.115c0.185,0.409,0.529,0.75,1.033,1.025
			c0.503,0.275,1.372,0.413,2.608,0.413v0.958h-12.021v-0.958c1.077,0,1.924-0.169,2.542-0.506c0.353-0.178,0.636-0.515,0.847-1.013
			c0.212-0.496,0.318-1.508,0.318-3.035v-22.071c0-2.786-0.066-4.5-0.198-5.139c-0.133-0.639-0.336-1.073-0.609-1.305
			c-0.274-0.23-0.64-0.346-1.099-0.346c-0.371,0-0.971,0.142-1.801,0.426l-0.371-0.932l7.255-2.982H277.835z"/>
		<path fill="#231F20" d="M319.09,243.052v14.776c0,2.822,0.066,4.549,0.199,5.179c0.131,0.63,0.344,1.069,0.635,1.317
			c0.291,0.249,0.631,0.373,1.02,0.373c0.547,0,1.164-0.15,1.854-0.453l0.371,0.933l-7.256,3.008h-1.191v-5.165
			c-2.084,2.272-3.672,3.701-4.766,4.287c-1.096,0.585-2.251,0.878-3.469,0.878c-1.36,0-2.538-0.395-3.535-1.185
			c-0.998-0.789-1.69-1.806-2.079-3.049c-0.389-1.242-0.583-2.999-0.583-5.271v-10.889c0-1.154-0.124-1.953-0.371-2.396
			c-0.248-0.443-0.614-0.785-1.099-1.025c-0.486-0.239-1.364-0.351-2.635-0.333v-0.984h8.5v16.32c0,2.272,0.393,3.764,1.178,4.473
			c0.785,0.711,1.734,1.065,2.847,1.065c0.759,0,1.62-0.239,2.581-0.719c0.963-0.479,2.105-1.394,3.43-2.742v-13.818
			c0-1.385-0.252-2.32-0.754-2.809c-0.504-0.488-1.551-0.75-3.139-0.786v-0.984H319.09z"/>
		<path fill="#231F20" d="M336.804,242.332c3.671,0,6.619,1.402,8.844,4.207c1.889,2.396,2.833,5.147,2.833,8.254
			c0,2.183-0.521,4.393-1.563,6.629c-1.041,2.237-2.476,3.924-4.303,5.06c-1.827,1.135-3.861,1.703-6.104,1.703
			c-3.653,0-6.558-1.464-8.711-4.393c-1.818-2.467-2.728-5.236-2.728-8.307c0-2.236,0.552-4.46,1.655-6.67
			c1.103-2.21,2.555-3.843,4.355-4.898C332.885,242.86,334.791,242.332,336.804,242.332z M335.982,244.063
			c-0.936,0-1.876,0.279-2.82,0.838c-0.944,0.56-1.708,1.54-2.29,2.942c-0.583,1.402-0.874,3.204-0.874,5.405
			c0,3.55,0.702,6.611,2.105,9.185c1.403,2.574,3.252,3.861,5.547,3.861c1.712,0,3.125-0.71,4.237-2.13
			c1.111-1.42,1.668-3.861,1.668-7.322c0-4.33-0.927-7.738-2.78-10.224C339.521,244.915,337.924,244.063,335.982,244.063z"/>
		<path fill="#231F20" d="M359.1,235.037v8.015h5.666v1.863H359.1v15.815c0,1.58,0.225,2.645,0.675,3.194
			c0.45,0.551,1.028,0.825,1.734,0.825c0.583,0,1.147-0.182,1.695-0.546c0.547-0.363,0.97-0.9,1.271-1.61h1.032
			c-0.617,1.74-1.491,3.049-2.621,3.927c-1.13,0.879-2.295,1.318-3.495,1.318c-0.813,0-1.606-0.227-2.383-0.679
			c-0.777-0.453-1.351-1.101-1.722-1.944c-0.37-0.843-0.556-2.143-0.556-3.9v-16.4h-3.84v-0.879c0.971-0.39,1.964-1.052,2.979-1.983
			c1.015-0.932,1.919-2.036,2.714-3.314c0.406-0.675,0.971-1.908,1.694-3.701H359.1z"/>
		<path fill="#231F20" d="M404.854,232.321v-0.984h12.71v0.984h-1.351c-1.412,0-2.498,0.596-3.257,1.784
			c-0.371,0.551-0.557,1.828-0.557,3.834v14.644c0,3.621-0.357,6.43-1.072,8.427s-2.118,3.71-4.21,5.139s-4.938,2.143-8.539,2.143
			c-3.919,0-6.894-0.683-8.924-2.05c-2.03-1.366-3.469-3.203-4.316-5.511c-0.564-1.58-0.847-4.544-0.847-8.893v-14.111
			c0-2.219-0.305-3.674-0.914-4.366c-0.608-0.692-1.593-1.039-2.952-1.039h-1.351v-0.984h15.517v0.984h-1.377
			c-1.482,0-2.542,0.471-3.177,1.411c-0.441,0.64-0.662,1.971-0.662,3.994v15.735c0,1.402,0.128,3.008,0.384,4.818
			s0.719,3.222,1.39,4.233s1.638,1.847,2.899,2.503c1.263,0.657,2.812,0.985,4.647,0.985c2.348,0,4.448-0.515,6.302-1.545
			c1.854-1.028,3.12-2.347,3.8-3.953s1.02-4.326,1.02-8.16v-14.617c0-2.254-0.247-3.665-0.741-4.233
			c-0.688-0.781-1.713-1.172-3.071-1.172H404.854z"/>
		<path fill="#231F20" d="M426.912,247.498c2.842-3.443,5.552-5.166,8.129-5.166c1.324,0,2.463,0.333,3.416,0.999
			c0.953,0.665,1.712,1.762,2.277,3.288c0.388,1.064,0.582,2.698,0.582,4.898v10.41c0,1.545,0.123,2.592,0.371,3.143
			c0.193,0.443,0.507,0.79,0.939,1.038c0.433,0.249,1.231,0.373,2.396,0.373v0.958h-11.995v-0.958h0.503
			c1.13,0,1.92-0.174,2.37-0.52c0.45-0.347,0.764-0.856,0.94-1.531c0.07-0.266,0.105-1.101,0.105-2.503v-9.983
			c0-2.219-0.287-3.83-0.86-4.833c-0.574-1.002-1.54-1.504-2.899-1.504c-2.101,0-4.192,1.154-6.275,3.461v12.859
			c0,1.651,0.097,2.672,0.291,3.063c0.247,0.515,0.587,0.892,1.02,1.131c0.433,0.24,1.311,0.36,2.635,0.36v0.958h-11.995v-0.958
			h0.529c1.235,0,2.07-0.315,2.503-0.945c0.432-0.63,0.648-1.833,0.648-3.608v-9.052c0-2.929-0.066-4.713-0.198-5.352
			c-0.133-0.639-0.336-1.074-0.609-1.305s-0.64-0.346-1.099-0.346c-0.495,0-1.086,0.133-1.774,0.398l-0.397-0.958l7.309-2.982h1.139
			V247.498z"/>
		<path fill="#231F20" d="M455.323,242.332v19.596c0,1.527,0.11,2.543,0.331,3.049s0.548,0.884,0.98,1.132
			c0.432,0.249,1.222,0.373,2.369,0.373v0.958h-11.783v-0.958c1.183,0,1.978-0.115,2.384-0.347c0.405-0.23,0.728-0.612,0.966-1.145
			c0.238-0.533,0.357-1.553,0.357-3.063v-9.398c0-2.645-0.079-4.356-0.238-5.138c-0.123-0.568-0.317-0.963-0.582-1.186
			c-0.265-0.222-0.627-0.332-1.086-0.332c-0.494,0-1.095,0.133-1.801,0.398l-0.37-0.958l7.308-2.982H455.323z M453.126,229.579
			c0.741,0,1.372,0.263,1.894,0.786c0.521,0.523,0.781,1.157,0.781,1.903c0,0.745-0.261,1.385-0.781,1.917
			c-0.521,0.532-1.152,0.799-1.894,0.799s-1.377-0.267-1.906-0.799c-0.53-0.532-0.795-1.172-0.795-1.917
			c0-0.746,0.261-1.38,0.781-1.903S452.367,229.579,453.126,229.579z"/>
		<path fill="#231F20" d="M460.778,243.052h11.412v0.984h-0.741c-0.688,0-1.214,0.169-1.575,0.506
			c-0.362,0.338-0.543,0.79-0.543,1.358c0,0.621,0.186,1.357,0.556,2.21l5.641,13.472l5.666-13.978
			c0.406-0.994,0.609-1.748,0.609-2.264c0-0.248-0.071-0.452-0.212-0.612c-0.194-0.266-0.441-0.448-0.741-0.546
			c-0.301-0.097-0.91-0.146-1.827-0.146v-0.984h7.917v0.984c-0.918,0.071-1.554,0.258-1.906,0.56
			c-0.618,0.532-1.175,1.42-1.668,2.662l-8.606,20.927h-1.085l-8.659-20.58c-0.389-0.959-0.759-1.646-1.112-2.063
			c-0.353-0.417-0.803-0.768-1.35-1.052c-0.301-0.16-0.892-0.311-1.774-0.453V243.052z"/>
		<path fill="#231F20" d="M493.215,252.237c-0.018,3.62,0.856,6.461,2.621,8.52c1.766,2.06,3.84,3.088,6.223,3.088
			c1.589,0,2.97-0.438,4.145-1.317c1.174-0.879,2.157-2.383,2.952-4.513l0.82,0.532c-0.37,2.432-1.447,4.646-3.23,6.643
			s-4.016,2.995-6.699,2.995c-2.912,0-5.406-1.14-7.479-3.421c-2.075-2.28-3.111-5.347-3.111-9.199c0-4.171,1.063-7.423,3.19-9.758
			c2.127-2.333,4.797-3.501,8.01-3.501c2.719,0,4.952,0.901,6.699,2.702c1.748,1.802,2.621,4.212,2.621,7.229H493.215z
			 M493.215,250.692h11.227c-0.088-1.562-0.273-2.662-0.556-3.301c-0.441-0.994-1.099-1.775-1.973-2.344
			c-0.874-0.567-1.787-0.852-2.74-0.852c-1.466,0-2.776,0.572-3.933,1.717C494.084,247.059,493.409,248.651,493.215,250.692z"/>
		<path fill="#231F20" d="M520.303,242.332v5.485c2.029-3.656,4.113-5.485,6.249-5.485c0.971,0,1.774,0.298,2.409,0.893
			c0.636,0.595,0.954,1.282,0.954,2.063c0,0.692-0.23,1.277-0.688,1.757c-0.46,0.479-1.007,0.719-1.643,0.719
			c-0.617,0-1.311-0.306-2.078-0.918s-1.337-0.919-1.708-0.919c-0.317,0-0.662,0.178-1.032,0.532
			c-0.795,0.729-1.615,1.927-2.463,3.595v11.688c0,1.349,0.168,2.369,0.503,3.062c0.229,0.479,0.636,0.879,1.218,1.198
			c0.583,0.319,1.421,0.479,2.516,0.479v0.958h-12.418v-0.958c1.235,0,2.153-0.195,2.754-0.586c0.44-0.284,0.75-0.736,0.927-1.358
			c0.088-0.302,0.132-1.162,0.132-2.582v-9.452c0-2.84-0.058-4.53-0.172-5.072c-0.115-0.541-0.327-0.936-0.636-1.185
			c-0.309-0.248-0.693-0.372-1.151-0.372c-0.548,0-1.165,0.133-1.854,0.398l-0.266-0.958l7.335-2.982H520.303z"/>
		<path fill="#231F20" d="M546.94,242.332v8.308h-0.874c-0.671-2.609-1.531-4.384-2.581-5.325c-1.051-0.94-2.388-1.411-4.012-1.411
			c-1.236,0-2.233,0.329-2.992,0.985c-0.76,0.656-1.139,1.384-1.139,2.183c0,0.995,0.282,1.847,0.848,2.557
			c0.547,0.728,1.659,1.5,3.336,2.316l3.866,1.89c3.583,1.758,5.375,4.074,5.375,6.949c0,2.219-0.834,4.007-2.502,5.365
			c-1.669,1.357-3.535,2.036-5.601,2.036c-1.482,0-3.178-0.266-5.084-0.799c-0.583-0.177-1.06-0.266-1.43-0.266
			c-0.406,0-0.725,0.23-0.953,0.692h-0.874v-8.706h0.874c0.494,2.484,1.438,4.357,2.833,5.617c1.395,1.261,2.956,1.891,4.687,1.891
			c1.218,0,2.211-0.359,2.979-1.078c0.768-0.719,1.151-1.585,1.151-2.597c0-1.225-0.428-2.254-1.284-3.088s-2.564-1.891-5.124-3.168
			c-2.56-1.278-4.236-2.432-5.03-3.462c-0.795-1.012-1.192-2.289-1.192-3.834c0-2.005,0.685-3.683,2.053-5.031
			c1.367-1.35,3.138-2.024,5.309-2.024c0.953,0,2.109,0.205,3.469,0.613c0.9,0.266,1.5,0.398,1.801,0.398
			c0.282,0,0.503-0.062,0.662-0.186s0.344-0.399,0.556-0.826H546.94z"/>
		<path fill="#231F20" d="M560.735,242.332v19.596c0,1.527,0.11,2.543,0.331,3.049s0.548,0.884,0.98,1.132
			c0.432,0.249,1.222,0.373,2.369,0.373v0.958h-11.783v-0.958c1.183,0,1.978-0.115,2.384-0.347c0.405-0.23,0.728-0.612,0.966-1.145
			c0.238-0.533,0.357-1.553,0.357-3.063v-9.398c0-2.645-0.079-4.356-0.238-5.138c-0.123-0.568-0.317-0.963-0.582-1.186
			c-0.265-0.222-0.627-0.332-1.086-0.332c-0.494,0-1.095,0.133-1.801,0.398l-0.37-0.958l7.308-2.982H560.735z M558.538,229.579
			c0.741,0,1.372,0.263,1.894,0.786c0.521,0.523,0.781,1.157,0.781,1.903c0,0.745-0.261,1.385-0.781,1.917
			c-0.521,0.532-1.152,0.799-1.894,0.799s-1.377-0.267-1.906-0.799c-0.53-0.532-0.795-1.172-0.795-1.917
			c0-0.746,0.261-1.38,0.781-1.903S557.779,229.579,558.538,229.579z"/>
		<path fill="#231F20" d="M574.479,235.037v8.015h5.666v1.863h-5.666v15.815c0,1.58,0.225,2.645,0.675,3.194
			c0.45,0.551,1.028,0.825,1.734,0.825c0.583,0,1.147-0.182,1.695-0.546c0.547-0.363,0.97-0.9,1.271-1.61h1.032
			c-0.617,1.74-1.491,3.049-2.621,3.927c-1.13,0.879-2.295,1.318-3.495,1.318c-0.813,0-1.606-0.227-2.383-0.679
			c-0.777-0.453-1.351-1.101-1.722-1.944c-0.37-0.843-0.556-2.143-0.556-3.9v-16.4h-3.84v-0.879c0.971-0.39,1.964-1.052,2.979-1.983
			c1.015-0.932,1.919-2.036,2.714-3.314c0.406-0.675,0.971-1.908,1.694-3.701H574.479z"/>
		<path fill="#231F20" d="M581.125,243.052h11.307v0.984h-0.556c-0.795,0-1.391,0.174-1.787,0.52
			c-0.397,0.346-0.596,0.776-0.596,1.291c0,0.692,0.291,1.651,0.873,2.876l5.905,12.3l5.428-13.472c0.3-0.728,0.45-1.446,0.45-2.156
			c0-0.319-0.062-0.56-0.186-0.719c-0.141-0.195-0.361-0.351-0.661-0.466c-0.301-0.115-0.83-0.174-1.589-0.174v-0.984h7.891v0.984
			c-0.653,0.071-1.156,0.213-1.51,0.427c-0.354,0.213-0.741,0.612-1.165,1.197c-0.158,0.249-0.459,0.933-0.9,2.051l-9.876,24.335
			c-0.953,2.36-2.202,4.144-3.747,5.352c-1.545,1.206-3.032,1.81-4.462,1.81c-1.042,0-1.897-0.302-2.568-0.904
			c-0.671-0.604-1.006-1.296-1.006-2.077c0-0.745,0.242-1.345,0.728-1.797c0.485-0.453,1.152-0.68,2-0.68
			c0.582,0,1.376,0.195,2.383,0.586c0.706,0.267,1.147,0.399,1.324,0.399c0.529,0,1.107-0.275,1.734-0.825
			c0.626-0.551,1.257-1.615,1.893-3.195l1.722-4.232l-8.712-18.398c-0.265-0.55-0.688-1.233-1.271-2.05
			c-0.442-0.621-0.804-1.038-1.086-1.251c-0.406-0.284-1.06-0.533-1.96-0.746V243.052z"/>
	</g>
</g>
<polygon fill="#FDEB00" points="248.399,189.91 242.4,195.981 243.982,204.368 236.363,200.525 228.872,204.63 230.172,196.183 
	223.96,190.332 232.379,188.966 236.033,181.246 239.929,188.835 "/>
<polygon fill="none" stroke="#EC1E24" stroke-width="0.5" stroke-miterlimit="10" points="248.399,189.91 242.4,195.981 
	243.982,204.368 236.363,200.525 228.872,204.63 230.172,196.183 223.96,190.332 232.379,188.966 236.033,181.246 239.929,188.835 
	"/>
<polygon fill="#FDEB00" points="328.017,181.366 318.451,190.995 320.977,204.349 308.858,198.222 296.955,204.751 299.017,191.317 
	289.133,182.029 302.533,179.84 308.336,167.566 314.553,179.639 "/>
<polygon fill="none" stroke="#EC1E24" stroke-width="0.5" stroke-miterlimit="10" points="328.017,181.366 318.451,190.995 
	320.977,204.349 308.858,198.222 296.955,204.751 299.017,191.317 289.133,182.029 302.533,179.84 308.336,167.566 314.553,179.639 
	"/>
<polygon fill="#FDEB00" points="284.117,185.447 275.936,193.699 278.096,205.112 267.729,199.871 257.536,205.455 259.316,193.961 
	250.858,186.01 262.322,184.141 267.293,173.647 272.616,183.97 "/>
<polygon fill="none" stroke="#EC1E24" stroke-width="0.5" stroke-miterlimit="10" points="284.117,185.447 275.936,193.699 
	278.096,205.112 267.729,199.871 257.536,205.455 259.316,193.961 250.858,186.01 262.322,184.141 267.293,173.647 272.616,183.97 
	"/>
<polygon fill="#FDEB00" points="365.441,185.236 357.26,193.488 359.426,204.901 349.048,199.66 338.866,205.242 340.64,193.77 
	332.182,185.799 343.652,183.93 348.616,173.437 353.939,183.758 "/>
<polygon fill="none" stroke="#EC1E24" stroke-width="0.5" stroke-miterlimit="10" points="365.441,185.236 357.26,193.488 
	359.426,204.901 349.048,199.66 338.866,205.242 340.64,193.77 332.182,185.799 343.652,183.93 348.616,173.437 353.939,183.758 "/>
<polygon fill="#FDEB00" points="394.109,189.91 388.116,195.981 389.704,204.368 382.083,200.525 374.578,204.63 375.889,196.183 
	369.673,190.332 378.097,188.966 381.75,181.246 385.646,188.835 "/>
<polygon fill="none" stroke="#EC1E24" stroke-width="0.5" stroke-miterlimit="10" points="394.109,189.91 388.116,195.981 
	389.704,204.368 382.083,200.525 374.578,204.63 375.889,196.183 369.673,190.332 378.097,188.966 381.75,181.246 385.646,188.835 
	"/>
<g>
	<defs>
		<rect id="SVGID_3_" width="618" height="282"/>
	</defs>
	<clipPath id="SVGID_4_">
		<use xlink:href="#SVGID_3_"  overflow="visible"/>
	</clipPath>
	<path clip-path="url(#SVGID_4_)" d="M615.993,196.423l-102.702,0.7c-17.117,0.107-34.234,0.331-51.352,0.199
		c-17.117-0.182-34.234-0.326-51.352-0.899v-0.2c17.117-0.572,34.234-0.718,51.352-0.9c17.117-0.13,34.234,0.093,51.352,0.2
		l102.702,0.7V196.423z"/>
	<path clip-path="url(#SVGID_4_)" d="M1.969,196.748l102.703-0.7c17.116-0.108,34.234-0.331,51.351-0.2
		c17.117,0.183,34.234,0.327,51.351,0.9v0.2c-17.117,0.571-34.234,0.717-51.351,0.899c-17.117,0.13-34.235-0.092-51.351-0.2
		L1.969,196.948V196.748z"/>
</g>
</svg>
